<?xml version="1.0" encoding="UTF-8" standalone="no"?>
<!-- Created with Inkscape (http://www.inkscape.org/) -->

<svg
   width="650"
   height="250"
   viewBox="0 0 171.97916 66.145835"
   version="1.1"
   id="svg1"
   xml:space="preserve"
   xmlns="http://www.w3.org/2000/svg"
   xmlns:svg="http://www.w3.org/2000/svg"><defs
     id="defs1" /><rect
     style="fill:#ffffff;stroke-width:0.264583"
     id="rect1"
     width="171.97917"
     height="66.145836"
     x="1.1026906e-05"
     y="2.6395634e-07" /><g
     id="layer3"
     transform="translate(-161.73238,5.6324713)"><g
       id="g2"
       transform="matrix(0.55205939,0,0,0.55205939,159.15983,-9.0759842)"><text
         xml:space="preserve"
         style="font-weight:600;font-size:56.4444px;font-family:Montserrat;-inkscape-font-specification:'Montserrat Semi-Bold';text-align:start;writing-mode:lr-tb;direction:ltr;text-anchor:start;fill:#000000;stroke-width:0.264583"
         x="25.878334"
         y="88.084183"
         id="text1-1"><tspan
           id="tspan1-5"
           style="font-style:normal;font-variant:normal;font-weight:normal;font-stretch:normal;font-size:56.4444px;font-family:Bevan;-inkscape-font-specification:Bevan;stroke-width:0.264583"
           x="25.878334"
           y="88.084183">R</tspan></text><text
         xml:space="preserve"
         style="font-weight:600;font-size:24.6944px;font-family:Montserrat;-inkscape-font-specification:'Montserrat Semi-Bold';text-align:start;writing-mode:lr-tb;direction:ltr;text-anchor:start;fill:#000000;stroke-width:0.329639"
         x="90.734985"
         y="76.802185"
         id="text1-8-2"><tspan
           id="tspan1-8-7"
           style="font-style:normal;font-variant:normal;font-weight:normal;font-stretch:normal;font-size:24.6944px;font-family:Bevan;-inkscape-font-specification:Bevan;stroke-width:0.329639"
           x="90.734985"
           y="76.802185">V</tspan></text><path
         fill="none"
         stroke="#000000"
         stroke-linecap="round"
         stroke-linejoin="round"
         stroke-width="3.29659"
         d="m 92.282259,48.981138 c 4.459186,-2.639468 6.68768,-3.960301 9.135941,-3.960301 2.44827,0 4.67676,1.318634 9.13594,3.960301 l 1.50764,0.892276 c 4.45918,2.641667 6.68768,3.962499 7.91181,6.136049 1.22413,2.17575 1.22413,4.81302 1.22413,10.096352 v 1.784553 c 0,5.281134 0,7.922801 -1.22413,10.096352 -1.22413,2.17355 -3.45263,3.494384 -7.91181,6.133845 l -1.50764,0.894486 c -4.96207,2.471829 -6.68767,2.25044 -9.13594,2.25044 -2.448261,0 -4.140329,0.32416 -9.135941,-2.25044 L 90.77462,84.120565 C 86.315436,81.4833 84.086942,80.16027 82.862808,77.98672 81.638675,75.810971 81.638675,73.173701 81.638675,67.890368 v -1.784553 c 0,-5.283332 0,-7.922799 1.224133,-10.096352 1.224134,-2.17355 3.452628,-3.494382 7.911812,-6.136049 z"
         color="#000000"
         id="path1-6" /></g><text
       xml:space="preserve"
       style="font-style:normal;font-variant:normal;font-weight:normal;font-stretch:normal;font-size:21.1667px;font-family:Bevan;-inkscape-font-specification:Bevan;text-align:start;writing-mode:lr-tb;direction:ltr;text-anchor:start;fill:#000000;stroke-width:0.264583"
       x="236.38106"
       y="36.172741"
       id="text2"><tspan
         id="tspan2"
         style="font-style:normal;font-variant:normal;font-weight:normal;font-stretch:normal;font-size:21.1667px;font-family:Arvo;-inkscape-font-specification:Arvo;stroke-width:0.264583"
         x="236.38106"
         y="36.172741">Reservo</tspan></text></g></svg>
